<svg width="247.000000" height="55.000000" viewBox="0 0 247 55" fill="none" xmlns="http://www.w3.org/2000/svg" xmlns:xlink="http://www.w3.org/1999/xlink">
	<desc>
			Created with Pixso.
	</desc>
	<defs/>
	<path id="Форма 1" d="M2 49L7.06 46.7L13.14 45.17C22.22 42.12 26.88 41.31 34.42 41.35L49.62 41.35L66.85 41.35C80 41.35 86.46 41.35 97.25 41.35L116.5 41.35L137.78 41.35L165.14 41.35L180.34 41.35L192.5 41.35L210.74 41.35C219.94 40.33 229.49 36.22 236 33.5L239.5 25L241 19L236 10L230.5 6.5L225.5 5L221 5L213.5 5L201.5 5L192.5 5L180.34 5L121.5 5L59 5L53.5 5L49.62 5L43 5L30.5 8.5L26 10L22.5 11.5L19 16L16 23L16 26L17.5 30L20.5 " stroke="#480E5E" stroke-opacity="0.811688" stroke-width="11.000000"/>
</svg>
