<svg width="151.000000" height="60.000000" viewBox="0 0 151 60" fill="none" xmlns="http://www.w3.org/2000/svg" xmlns:xlink="http://www.w3.org/1999/xlink">
	<desc>
			Created with Pixso.
	</desc>
	<defs/>
	<path id="Форма 1" d="M0 46L15 44.5L25.98 41.71L28.98 40.71C29.43 40.51 29.85 40.32 30.26 40.15C33.93 38.61 36.13 38.19 39.48 38.21L46.98 38.21L55.48 38.21C61.97 38.21 65.16 38.21 70.48 38.21L79.98 38.21L90.48 38.21L103.98 38.21L111.48 38.21L117.48 38.21L126.48 38.21C131.02 37.55 132.77 36.49 135.98 34.71L141.5 31L145.5 26L145.5 19L141.5 14.5L134 8L129 5C126.73 5 122.46 5 123.5 5L113 5L103.98 5L78.5 5L66.5 5L53 5L45.5 6.5L39.48 8L31 11.5L23.48 16.5L21 22L21 28.5L23.48 34.71L25.66 36.46L27.84 38.21L30.26 40.15M45.5 52L42.49 50L39.48 48L37.18 46.03L34.87 44.07L32.57 42.11L30.26 40.15M32.57 42.11L27.84 38.21M25.66 36.46C27.73 38.33 32.93 42.87 37.18 46.03M42.49 50L46.98 52L50.5 53L55.48 " stroke="#480E5E" stroke-opacity="0.811688" stroke-width="11.000000"/>
</svg>
